<?xml version="1.0" encoding="utf-8"?>
<!-- Generator: Adobe Illustrator 15.0.2, SVG Export Plug-In . SVG Version: 6.00 Build 0)  -->
<!DOCTYPE svg PUBLIC "-//W3C//DTD SVG 1.1//EN" "http://www.w3.org/Graphics/SVG/1.1/DTD/svg11.dtd">
<svg version="1.1" xmlns="http://www.w3.org/2000/svg" xmlns:xlink="http://www.w3.org/1999/xlink" x="0px" y="0px" width="100%"
   height="100%" viewBox="240 80 1150 140" xml:space="preserve">
<g id="INSANE">
  <g>
    <path d="M336.24,89.763v82.8h-48.384v-82.8H336.24z"/>
    <path d="M492.191,110.354h-88.704v62.208h-46.8v-82.8h150.192c9.022,0,16.704,2.113,23.04,6.336
      c6.431,4.417,9.648,9.553,9.648,15.408v61.056h-47.376V110.354z"/>
    <path d="M592.99,139.442c-5.184-0.576-9.96-1.487-14.328-2.736c-4.37-1.247-8.136-2.855-11.304-4.824
      c-3.168-1.966-5.616-4.198-7.344-6.696c-1.728-2.495-2.592-5.231-2.592-8.208v-5.616c0-5.951,3.407-11.038,10.224-15.264
      c6.624-4.223,14.879-6.336,24.768-6.336h149.184v19.872H608.254v11.664h96.912c5.278,0.385,10.152,1.058,14.616,2.016
      c4.464,0.961,8.303,2.282,11.52,3.96c3.215,1.681,5.735,3.649,7.56,5.904c1.823,2.256,2.736,4.873,2.736,7.848v9.792
      c0,5.857-3.506,10.994-10.512,15.408c-6.624,4.226-14.976,6.336-25.056,6.336H557.278v-19.728H690.19v-13.392H592.99z"/>
    <path d="M808.558,172.562h-47.376v-61.056c0-5.76,3.312-10.895,9.936-15.408c6.239-4.223,13.918-6.336,23.04-6.336h116.64
      c9.022,0,16.704,2.113,23.04,6.336c6.43,4.417,9.648,9.553,9.648,15.408v61.056h-47.088v-26.496h-87.84V172.562z M896.398,128.499
      v-18.144h-87.84v18.144h28.08H896.398z"/>
    <path d="M1100.012,110.354h-88.704v62.208h-46.8v-82.8H1114.7c9.022,0,16.704,2.113,23.04,6.336
      c6.431,4.417,9.648,9.553,9.648,15.408v61.056h-47.376V110.354z"/>
    <path d="M1349.419,151.971v20.592h-149.76c-9.122,0-16.801-2.11-23.04-6.336c-6.433-4.32-9.648-9.455-9.648-15.408v-39.312
      c0-5.951,3.215-11.088,9.648-15.408c6.239-4.223,13.918-6.336,23.04-6.336h150.336v20.592h-135.937v41.616H1349.419z
       M1241.707,139.442h99.072v-17.28h-99.072V139.442z"/>
  </g>
</g>
<g id="T_e_c_h_n_o_l_o_g_i_e_s">
  <g>
    <path d="M331.819,189.213h-16.011v23.079h-12.933v-23.079h-15.915v-7.645h44.858V189.213z"/>
    <path d="M393.938,193.445h31.348v6.539h-31.348v4.616h33.608v7.693h-37.166c-2.244,0-4.151-0.785-5.722-2.356
      c-1.571-1.57-2.356-3.478-2.356-5.722v-14.568c0-2.243,0.785-4.151,2.356-5.722c1.57-1.57,3.478-2.356,5.722-2.356h37.021v7.645
      h-33.463V193.445z"/>
    <path d="M489.808,204.647h33.463v7.645H486.25c-2.244,0-4.151-0.785-5.722-2.356c-1.571-1.57-2.356-3.478-2.356-5.722v-14.568
      c0-2.243,0.785-4.151,2.356-5.722c1.57-1.57,3.478-2.356,5.722-2.356h37.118v7.645h-33.56V204.647z"/>
    <path d="M605.199,181.569h11.539v30.723h-11.539v-11.01h-19.857v11.01h-11.491v-30.723h11.491v12.549h19.857V181.569z"/>
    <path d="M700.636,212.292v-23.079h-21.924v23.079h-11.587v-30.723h37.166c2.211,0,4.103,0.786,5.673,2.356
      c1.602,1.603,2.404,3.51,2.404,5.722v22.646H700.636z"/>
    <path d="M805.594,183.925c1.602,1.603,2.404,3.51,2.404,5.722v14.568c0,2.212-0.802,4.119-2.404,5.722
      c-1.571,1.571-3.51,2.356-5.818,2.356H770.88c-2.276,0-4.2-0.785-5.77-2.356c-1.571-1.57-2.356-3.478-2.356-5.722v-14.568
      c0-2.243,0.785-4.151,2.356-5.722c1.57-1.57,3.493-2.356,5.77-2.356h28.896C802.084,181.569,804.023,182.354,805.594,183.925z
       M796.314,189.213H774.39v15.434h21.924V189.213z"/>
    <path d="M903.628,204.503v7.789h-36.925c-2.244,0-4.167-0.801-5.77-2.404c-1.571-1.57-2.356-3.51-2.356-5.818v-22.549h11.779
      v22.982h21.444H903.628z"/>
    <path d="M997.239,183.925c1.602,1.603,2.404,3.51,2.404,5.722v14.568c0,2.212-0.802,4.119-2.404,5.722
      c-1.571,1.571-3.51,2.356-5.818,2.356h-28.896c-2.276,0-4.2-0.785-5.77-2.356c-1.571-1.57-2.356-3.478-2.356-5.722v-14.568
      c0-2.243,0.785-4.151,2.356-5.722c1.57-1.57,3.493-2.356,5.77-2.356h28.896C993.729,181.569,995.668,182.354,997.239,183.925z
       M987.959,189.213h-21.924v15.434h21.924V189.213z"/>
    <path d="M1083.446,196.666h11.828v8.558c0,1.411-0.801,2.965-2.404,4.664c-1.603,1.603-3.542,2.404-5.818,2.404h-28.704
      c-2.244,0-4.167-0.801-5.77-2.404c-1.571-1.57-2.356-3.51-2.356-5.818v-14.424c0-2.243,0.785-4.151,2.356-5.722
      c1.603-1.603,3.525-2.404,5.77-2.404h36.925v7.596h-33.271v15.386h21.444V196.666z"/>
    <path d="M1158.065,212.292h-12.02v-30.723h12.02V212.292z"/>
    <path d="M1219.943,193.445h31.348v6.539h-31.348v4.616h33.608v7.693h-37.166c-2.244,0-4.151-0.785-5.722-2.356
      c-1.571-1.57-2.356-3.478-2.356-5.722v-14.568c0-2.243,0.785-4.151,2.356-5.722c1.57-1.57,3.478-2.356,5.722-2.356h37.021v7.645
      h-33.463V193.445z"/>
    <path d="M1312.543,199.983c-1.314-0.192-2.508-0.529-3.582-1.01c-1.074-0.48-1.994-1.073-2.764-1.779
      c-0.77-0.705-1.371-1.522-1.803-2.452c-0.434-0.929-0.648-1.955-0.648-3.077v-2.067c0-2.211,0.832-4.103,2.5-5.673
      c1.697-1.603,3.75-2.404,6.154-2.404h36.877v7.308h-32.982v4.423h23.99c1.314,0.128,2.525,0.377,3.631,0.745
      c1.105,0.369,2.051,0.858,2.836,1.466c0.785,0.609,1.402,1.346,1.852,2.212c0.449,0.865,0.674,1.843,0.674,2.933v3.606
      c0,2.244-0.865,4.151-2.598,5.722c-1.666,1.571-3.734,2.356-6.201,2.356h-36.781v-7.164h32.887v-5.145H1312.543z"/>
  </g>
</g>
</svg>
